<svg id="Layer_1" data-name="Layer 1" xmlns="http://www.w3.org/2000/svg" viewBox="0 0 122.88 108.58"><title>internet-cloud</title><path d="M86.34,29.94c-.75.37-1.5.77-2.25,1.21a51.63,51.63,0,0,0-6.73,4.78l-4.84-5.54a39.41,39.41,0,0,1,5.41-4.21,37.64,37.64,0,0,1,4.76-2.65q1-.5,2-.93a29.42,29.42,0,0,0-13-12.2A31.6,31.6,0,0,0,55,7.49a30.21,30.21,0,0,0-15.62,6.1A29.27,29.27,0,0,0,28.68,31.73l-.48,2.51-2.5.44a34.43,34.43,0,0,0-6.56,1.77,21.94,21.94,0,0,0-5,2.66,16.8,16.8,0,0,0-3,2.79A17,17,0,0,0,7.34,53a20.13,20.13,0,0,0,3.79,11.54,18.9,18.9,0,0,0,3.17,3.4,16.05,16.05,0,0,0,3.07,2,33.37,33.37,0,0,0-.46,5.5c0,.77,0,1.53.08,2.28-.46-.16-.92-.33-1.36-.51a23.17,23.17,0,0,1-6.05-3.63,26.15,26.15,0,0,1-4.4-4.72A27.49,27.49,0,0,1,0,53,23.7,23.7,0,0,1,9.86,33.15a29,29,0,0,1,6.63-3.55A39.89,39.89,0,0,1,22,27.92,36.11,36.11,0,0,1,34.92,7.78,37.49,37.49,0,0,1,54.34.18a39,39,0,0,1,20.54,3.6A36.88,36.88,0,0,1,92,20.65a29.8,29.8,0,0,1,4.79-.36,24.55,24.55,0,0,1,18.31,8,28.35,28.35,0,0,1,3,3.9,32.93,32.93,0,0,1,4.77,17.92c-.07,6.3-1.78,12.59-5.25,17.21A27.32,27.32,0,0,1,109,74.69a32.27,32.27,0,0,1-3,1.5c0-.25,0-.5,0-.75a32.52,32.52,0,0,0-.78-7.07l.17-.09a20.32,20.32,0,0,0,6.4-5.41c2.5-3.33,3.73-8,3.78-12.87A25.55,25.55,0,0,0,112,36.14a21.47,21.47,0,0,0-2.25-2.9,17.38,17.38,0,0,0-13-5.61,25.39,25.39,0,0,0-10.41,2.31ZM56.56,46.35A28.25,28.25,0,0,0,50,48.26,30.52,30.52,0,0,0,44.91,51a27.93,27.93,0,0,0-4.34,3.57h0a29.47,29.47,0,0,0-2.35,2.65h8.56a67,67,0,0,1,9.79-10.87ZM87,90h.07a32.64,32.64,0,0,0,1.52-3.08l0-.09a28,28,0,0,0,1.68-5.45,29.27,29.27,0,0,0,.52-4.1h-8.2A29.44,29.44,0,0,1,78.88,90Zm-2.37,3.67H76.6a59.64,59.64,0,0,1-10,10.82l.77-.15a27.88,27.88,0,0,0,5.55-1.71,31.27,31.27,0,0,0,5-2.74,27.93,27.93,0,0,0,4.34-3.57h0a27.78,27.78,0,0,0,2.34-2.64Zm-12.6,0H63.27v8.85a62,62,0,0,0,8.79-8.85Zm-12.45,0H50.82a62,62,0,0,0,8.79,8.85V93.67Zm-13.33,0H38.21a29.35,29.35,0,0,0,2.35,2.64h0a27.93,27.93,0,0,0,4.34,3.57A31.27,31.27,0,0,0,50,102.63l.09,0a28.28,28.28,0,0,0,5.46,1.67l.77.15a59.64,59.64,0,0,1-10-10.82ZM35.78,90H44a29.3,29.3,0,0,1-3.78-12.72H32a28.52,28.52,0,0,0,2.23,9.64A32.7,32.7,0,0,0,35.78,90Zm12.45,0H59.61V77.28H43.88A26.76,26.76,0,0,0,48.23,90Zm15,0H74.65A26.87,26.87,0,0,0,79,77.28H63.27V90ZM32,73.61h8.27a31.46,31.46,0,0,1,4.16-12.72H35.78A31.49,31.49,0,0,0,34.26,64l0,.08a28.31,28.31,0,0,0-1.68,5.46,28.89,28.89,0,0,0-.52,4.1Zm11.94,0H59.61V60.89H48.71A29.16,29.16,0,0,0,44,73.61Zm19.31,0H78.92a29.16,29.16,0,0,0-4.75-12.72H63.27V73.61Zm19.32,0h8.27a28.89,28.89,0,0,0-.52-4.1A28.24,28.24,0,0,0,88.63,64a34,34,0,0,0-1.53-3.08H78.42a31.48,31.48,0,0,1,4.17,12.72ZM51.31,57.22h8.3v-8.7a67.76,67.76,0,0,0-8.3,8.7Zm12,0h8.3a67.76,67.76,0,0,0-8.3-8.7v8.7Zm12.84,0h8.55a27.89,27.89,0,0,0-2.34-2.65h0A27.93,27.93,0,0,0,78,51a30.52,30.52,0,0,0-5-2.74l-.09,0a28.31,28.31,0,0,0-5.46-1.68l-1.05-.19a67,67,0,0,1,9.79,10.87ZM48.52,44.9a32.55,32.55,0,0,1,12.92-2.59,33.85,33.85,0,0,1,6.65.64,31.45,31.45,0,0,1,6.17,1.91l.1,0A34.41,34.41,0,0,1,80,48a31.57,31.57,0,0,1,4.89,4,31,31,0,0,1,4,4.89A34.07,34.07,0,0,1,92,62.52a32,32,0,0,1,2,6.27,34.34,34.34,0,0,1,0,13.3A31.24,31.24,0,0,1,92,88.26l0,.11A34.07,34.07,0,0,1,88.92,94a32.47,32.47,0,0,1-4,4.89,32.06,32.06,0,0,1-4.9,4A34.45,34.45,0,0,1,74.36,106a31.34,31.34,0,0,1-6.27,1.94,34.34,34.34,0,0,1-13.3,0,31.42,31.42,0,0,1-6.17-1.9l-.1,0a35,35,0,0,1-5.65-3.07A32.57,32.57,0,0,1,34,94a34.87,34.87,0,0,1-3.07-5.64A32.81,32.81,0,0,1,28.3,75.44,33.93,33.93,0,0,1,29,68.79a32.11,32.11,0,0,1,1.9-6.17l0-.1A34.87,34.87,0,0,1,34,56.88,31.55,31.55,0,0,1,38,52a32.5,32.5,0,0,1,4.88-4,34.92,34.92,0,0,1,5.65-3.06Z"/></svg>