<svg width="140" height="140" viewBox="0 0 140 140" fill="none" xmlns="http://www.w3.org/2000/svg">
<path d="M118.352 20.7544C105.257 7.67428 87.8477 0.471191 69.3317 0.471191C50.8158 0.471191 33.4062 7.67428 20.3112 20.7544C7.21629 33.8344 0.00502883 51.2243 0.00502883 69.7193C0.00502883 85.0999 5.00363 99.697 14.2063 111.702L2.7608 123.135C-0.920266 126.812 -0.920266 132.769 2.7608 136.446C6.44186 140.123 12.406 140.123 16.0871 136.446L27.5627 124.983C39.5312 134.055 54.0543 138.967 69.3418 138.967C87.8577 138.967 105.267 131.764 118.362 118.684C131.457 105.604 138.668 88.2142 138.668 69.7193C138.658 51.2243 131.447 33.8344 118.352 20.7544ZM83.3218 106.589C83.3117 106.599 83.3117 106.599 83.3017 106.609C75.8993 113.993 63.8705 113.993 56.4681 106.609C49.0658 99.2148 49.0658 87.1996 56.4681 79.8056C60.1693 76.1086 65.0271 74.2601 69.8849 74.2601C74.7427 74.2601 79.6005 76.1086 83.3017 79.8056C90.694 87.1895 90.704 99.1947 83.3218 106.589ZM44.3789 67.7201C32.4306 79.6549 30.6403 97.949 38.9881 111.803C36.6246 110.346 34.422 108.608 32.4105 106.599C18.3802 92.5843 18.3802 69.7796 32.4105 55.7652C39.4306 48.753 48.6433 45.2569 57.8561 45.2569C67.0688 45.2569 76.2915 48.763 83.3017 55.7652C85.3132 57.7744 87.0431 59.9846 88.5014 62.3354C74.6421 53.9971 56.3273 55.7853 44.3789 67.7201ZM106.263 106.609C105.006 107.865 103.698 109.04 102.351 110.145C107.943 101.606 110.96 91.6299 110.96 81.1819C110.96 67.0169 105.438 53.6957 95.4109 43.6797C77.3476 25.6569 49.4278 23.3563 28.8501 36.7679C29.9665 35.4117 31.1432 34.0956 32.4105 32.8399C42.2769 22.9846 55.392 17.5597 69.3317 17.5597C83.2715 17.5597 96.3966 22.9846 106.263 32.8399C116.13 42.6952 121.561 55.7853 121.561 69.7193C121.561 83.6533 116.119 96.7535 106.263 106.609Z" fill="#000"/>
</svg>
