<svg width="340" height="140" viewBox="0 0 340 140" fill="none" xmlns="http://www.w3.org/2000/svg"><title>i2p icon</title>
<path d="M118.352 20.855C105.257 7.77487 87.8477 0.571777 69.3317 0.571777C50.8158 0.571777 33.4062 7.77487 20.3112 20.855C7.21629 33.935 0.00502883 51.3249 0.00502883 69.8199C0.00502883 85.2005 5.00363 99.7976 14.2063 111.803L2.7608 123.235C-0.920266 126.912 -0.920266 132.87 2.7608 136.546C6.44186 140.223 12.406 140.223 16.0871 136.546L27.5627 125.084C39.5312 134.155 54.0543 139.068 69.3418 139.068C87.8577 139.068 105.267 131.865 118.362 118.785C131.457 105.705 138.668 88.3148 138.668 69.8199C138.658 51.3249 131.447 33.935 118.352 20.855ZM83.3218 106.689C83.3117 106.699 83.3117 106.699 83.3017 106.709C75.8993 114.093 63.8705 114.093 56.4681 106.709C49.0658 99.3154 49.0658 87.3002 56.4681 79.9062C60.1693 76.2092 65.0271 74.3607 69.8849 74.3607C74.7427 74.3607 79.6005 76.2092 83.3017 79.9062C90.694 87.2901 90.704 99.2953 83.3218 106.689ZM44.3789 67.8207C32.4306 79.7555 30.6403 98.0496 38.9881 111.903C36.6246 110.447 34.422 108.709 32.4105 106.699C18.3802 92.6849 18.3802 69.8802 32.4105 55.8658C39.4306 48.8536 48.6433 45.3575 57.8561 45.3575C67.0688 45.3575 76.2915 48.8636 83.3017 55.8658C85.3132 57.875 87.0431 60.0852 88.5014 62.436C74.6421 54.0977 56.3273 55.8859 44.3789 67.8207ZM106.263 106.709C105.006 107.965 103.698 109.141 102.351 110.246C107.943 101.706 110.96 91.7305 110.96 81.2825C110.96 67.1175 105.438 53.7963 95.4109 43.7803C77.3476 25.7575 49.4278 23.4569 28.8501 36.8685C29.9665 35.5123 31.1432 34.1962 32.4105 32.9405C42.2769 23.0852 55.392 17.6603 69.3317 17.6603C83.2715 17.6603 96.3966 23.0852 106.263 32.9405C116.13 42.7957 121.561 55.8859 121.561 69.8199C121.561 83.7539 116.119 96.8541 106.263 106.709Z" fill="black"/>
</svg>
