<?xml version="1.0" encoding="iso-8859-1"?>
<!-- Generator: Adobe Illustrator 16.0.0, SVG Export Plug-In . SVG Version: 6.00 Build 0)  -->
<!DOCTYPE svg PUBLIC "-//W3C//DTD SVG 1.1//EN" "http://www.w3.org/Graphics/SVG/1.1/DTD/svg11.dtd">
<svg version="1.1" id="Capa_1" xmlns="http://www.w3.org/2000/svg" xmlns:xlink="http://www.w3.org/1999/xlink" x="0px" y="0px"
	 width="46px" height="46px" viewBox="0 0 46 46" style="enable-background:new 0 0 46 46;" xml:space="preserve">
<g>
	<g>
		<path d="M23,6c9.374,0,17,7.627,17,17c0,9.375-7.626,17-17,17S6,32.375,6,23C6,13.627,13.626,6,23,6 M23,0C10.298,0,0,10.298,0,23
			c0,12.703,10.298,23,23,23s23-10.297,23-23C46,10.298,35.702,0,23,0L23,0z"/>
		<g>
			<path d="M20.887,32.482c-0.609,0.608-1.437,0.951-2.298,0.951c-0.861,0-1.689-0.343-2.298-0.951l-7.122-7.123
				c-1.269-1.269-1.269-3.327,0-4.596c1.27-1.27,3.327-1.27,4.597,0l4.243,4.242c0.321,0.32,0.84,0.32,1.161,0l11.489-11.489
				c1.271-1.27,3.327-1.27,4.597,0c1.27,1.27,1.27,3.327,0,4.597L20.887,32.482z"/>
		</g>
	</g>
</g>
<g>
</g>
<g>
</g>
<g>
</g>
<g>
</g>
<g>
</g>
<g>
</g>
<g>
</g>
<g>
</g>
<g>
</g>
<g>
</g>
<g>
</g>
<g>
</g>
<g>
</g>
<g>
</g>
<g>
</g>
</svg>
